<svg width="30" height="30" viewBox="0 0 30 30" fill="none" xmlns="http://www.w3.org/2000/svg">
<path d="M15 30C23.2843 30 30 23.2843 30 15C30 6.71573 23.2843 0 15 0C6.71573 0 0 6.71573 0 15C0 23.2843 6.71573 30 15 30Z" fill="#3A5A99"/>
<path d="M22.2989 6.79785H7.70126C7.46163 6.79785 7.2318 6.89304 7.06236 7.06249C6.89292 7.23193 6.79773 7.46175 6.79773 7.70138V22.299C6.79773 22.5387 6.89292 22.7685 7.06236 22.9379C7.2318 23.1074 7.46163 23.2026 7.70126 23.2026H15.5613V16.8496H13.4118V14.379H15.5507V12.5473C15.5507 10.4296 16.8424 9.2755 18.7271 9.2755C19.365 9.27257 20.0024 9.30557 20.6365 9.37432V11.5873H19.3271C18.2966 11.5873 18.0989 12.0779 18.0989 12.7943V14.3755H20.5518L20.2307 16.8461H18.113V23.199H22.2954C22.535 23.199 22.7648 23.1038 22.9343 22.9344C23.1037 22.7649 23.1989 22.5351 23.1989 22.2955V7.70138C23.1989 7.46236 23.1042 7.23308 22.9355 7.06373C22.7668 6.89439 22.5379 6.79879 22.2989 6.79785Z" fill="white"/>
</svg>
