<svg width="853" height="827" viewBox="0 0 853 827" fill="none" xmlns="http://www.w3.org/2000/svg">
<path d="M852.284 356.5C852.284 553.39 692.674 713 495.784 713C298.895 713 139.284 553.39 139.284 356.5C139.284 159.61 298.895 0 495.784 0C692.674 0 852.284 159.61 852.284 356.5Z" fill="url(#paint0_linear)"/>
<path d="M0.0627839 647.99C-2.57625 546.744 78.3089 462.503 180.725 459.834C283.141 457.164 368.304 537.077 370.944 638.323C373.583 739.57 292.697 823.81 190.282 826.48C87.8656 829.149 2.70182 749.237 0.0627839 647.99Z" fill="url(#paint1_linear)"/>
<defs>
<linearGradient id="paint0_linear" x1="288.784" y1="878.5" x2="329.119" y2="-110.446" gradientUnits="userSpaceOnUse">
<stop stop-color="#4580C0"/>
<stop offset="1" stop-color="#c79690"/>
</linearGradient>
<linearGradient id="paint1_linear" x1="288.784" y1="878.5" x2="329.119" y2="-110.446" gradientUnits="userSpaceOnUse">
<stop stop-color="#4580C0"/>
<stop offset="1" stop-color="#c79690"/>
</linearGradient>
</defs>
</svg>
