<svg width="30" height="30" viewBox="0 0 30 30" fill="none" xmlns="http://www.w3.org/2000/svg">
<path d="M15 30C23.2843 30 30 23.2843 30 15C30 6.71573 23.2843 0 15 0C6.71573 0 0 6.71573 0 15C0 23.2843 6.71573 30 15 30Z" fill="#55ACEE"/>
<path d="M23.3999 9.79049C22.7703 10.068 22.1031 10.2512 21.4199 10.334C22.1404 9.90329 22.6789 9.22429 22.9341 8.4246C22.2579 8.82668 21.5178 9.10962 20.7458 9.26107C20.2728 8.75762 19.6594 8.40787 18.9852 8.25714C18.311 8.10642 17.6071 8.16168 16.9647 8.41575C16.3223 8.66983 15.771 9.111 15.3823 9.6821C14.9936 10.2532 14.7854 10.9279 14.7846 11.6187C14.7851 11.8835 14.8147 12.1475 14.8729 12.4058C13.5034 12.3389 12.1633 11.9855 10.9389 11.3684C9.7145 10.7513 8.63314 9.88436 7.76465 8.82342C7.32667 9.57997 7.19239 10.4746 7.38896 11.3264C7.58552 12.1782 8.09827 12.9235 8.82347 13.4117C8.2755 13.3943 7.73953 13.2467 7.25995 12.9811V13.027C7.26056 13.8228 7.53642 14.5939 8.04076 15.2095C8.54509 15.8252 9.24685 16.2474 10.027 16.4046C9.51921 16.5409 8.98731 16.5614 8.47053 16.4646C8.69004 17.1496 9.11849 17.7487 9.69576 18.1779C10.273 18.607 10.9702 18.8447 11.6894 18.8575C10.4682 19.8124 8.96182 20.3295 7.41171 20.3258C7.13686 20.3255 6.86227 20.309 6.58936 20.2764C8.16749 21.2931 10.0062 21.8312 11.8835 21.8258C18.2364 21.8258 21.6917 16.574 21.6917 12.0211C21.6917 11.8693 21.6917 11.7211 21.6917 11.5728C22.3623 11.0847 22.9407 10.4812 23.3999 9.79049Z" fill="white"/>
</svg>
