<svg width="30" height="30" viewBox="0 0 30 30" fill="none" xmlns="http://www.w3.org/2000/svg">
<path d="M15 30C23.2843 30 30 23.2843 30 15C30 6.71573 23.2843 0 15 0C6.71573 0 0 6.71573 0 15C0 23.2843 6.71573 30 15 30Z" fill="#25D366"/>
<path d="M6.59998 23.4386L7.78585 19.1045C6.86693 17.5093 6.49993 15.6555 6.74174 13.8304C6.98356 12.0054 7.82067 10.3112 9.12332 9.01034C10.426 7.70949 12.1214 6.87471 13.9467 6.63543C15.7721 6.39614 17.6254 6.76571 19.2193 7.68684C20.8132 8.60797 22.0588 10.0292 22.7628 11.7302C23.4668 13.4312 23.5901 15.317 23.1134 17.0951C22.6367 18.8733 21.5867 20.4446 20.1262 21.5653C18.6657 22.686 16.8762 23.2936 15.0353 23.2939C13.6383 23.2947 12.2634 22.9452 11.0364 22.2774L6.59998 23.4386ZM11.2411 20.7633L11.4953 20.9115C12.5632 21.5463 13.7824 21.8815 15.0247 21.8821C16.3998 21.8821 17.7441 21.4743 18.8875 20.7103C20.0309 19.9463 20.9221 18.8604 21.4484 17.5899C21.9746 16.3195 22.1123 14.9215 21.844 13.5727C21.5757 12.224 20.9135 10.9851 19.9411 10.0127C19.2986 9.36369 18.5332 8.84907 17.6897 8.49884C16.8463 8.1486 15.9415 7.96974 15.0282 7.9727C13.7856 7.97265 12.5656 8.30545 11.4952 8.9365C10.4247 9.56755 9.54282 10.4738 8.94118 11.5611C8.33955 12.6484 8.04011 13.8769 8.07404 15.1191C8.10797 16.3613 8.47401 17.5717 9.13409 18.6245L9.29996 18.8856L8.59408 21.4515L11.2411 20.7633Z" fill="white"/>
<path fill-rule="evenodd" clip-rule="evenodd" d="M19.2493 16.9199C19.1963 16.8317 19.0587 16.7787 18.8504 16.6764C18.6422 16.574 17.6116 16.0658 17.4387 15.9952C17.2657 15.9246 17.1069 15.8893 16.9693 16.1011C16.8316 16.3128 16.4293 16.7787 16.3057 16.9199C16.1822 17.0611 16.0622 17.0752 15.854 16.9728C15.2381 16.727 14.6696 16.3758 14.174 15.9352C13.7174 15.5121 13.325 15.0246 13.0093 14.4881C12.9865 14.4543 12.9709 14.4162 12.9632 14.3762C12.9555 14.3362 12.9559 14.295 12.9645 14.2551C12.973 14.2153 12.9895 14.1776 13.013 14.1442C13.0365 14.1109 13.0664 14.0826 13.101 14.0611C13.1963 13.9658 13.3093 13.8176 13.4152 13.7081C13.5001 13.6004 13.5702 13.4817 13.6234 13.3552C13.6518 13.3007 13.6667 13.2402 13.6667 13.1787C13.6667 13.1173 13.6518 13.0567 13.6234 13.0023C13.5704 12.8999 13.154 11.8693 12.981 11.4528C12.8081 11.0364 12.6281 11.0999 12.5081 11.0999C12.3881 11.0999 12.2469 11.0999 12.1093 11.0999C12.0033 11.1025 11.899 11.127 11.803 11.172C11.7071 11.2169 11.6214 11.2813 11.5516 11.3611C11.3158 11.5853 11.1291 11.856 11.0033 12.1562C10.8776 12.4563 10.8155 12.7793 10.821 13.1046C10.821 14.1352 11.5693 15.127 11.6716 15.2681C11.774 15.4093 13.1469 17.5164 15.2434 18.4234C15.6334 18.5904 16.0315 18.7377 16.4363 18.8646C16.8629 18.9933 17.3136 19.0211 17.7528 18.9458C18.1551 18.8858 18.9881 18.4411 19.1646 17.954C19.298 17.6261 19.3275 17.2652 19.2493 16.9199Z" fill="white"/>
</svg>
 